<svg width="21" height="35" viewBox="0 0 21 35" fill="none" xmlns="http://www.w3.org/2000/svg">
<path d="M0.564335 31.8784C0.384068 32.0437 0.243139 32.2381 0.149595 32.4506C0.0560514 32.6631 0.0117227 32.8895 0.0191442 33.1169C0.0265657 33.3442 0.0855924 33.5681 0.19285 33.7756C0.300106 33.9832 0.453497 34.1705 0.64426 34.3267C0.835026 34.4829 1.05943 34.605 1.30466 34.6861C1.54989 34.7671 1.81114 34.8055 2.0735 34.7991C2.33586 34.7927 2.59419 34.7415 2.83374 34.6486C3.07329 34.5556 3.28936 34.4227 3.46963 34.2574L20.4538 18.6741C20.8046 18.3526 21 17.9269 21 17.4845C21 17.0421 20.8046 16.6165 20.4538 16.295L3.46964 0.709914C3.29056 0.540991 3.07453 0.404581 2.8341 0.308615C2.59367 0.212645 2.33363 0.159033 2.06909 0.150889C1.80454 0.142744 1.54077 0.180231 1.29309 0.261172C1.0454 0.342112 0.81875 0.464888 0.626287 0.622374C0.433826 0.77986 0.279391 0.968916 0.17196 1.17856C0.0645266 1.3882 0.00623612 1.61425 0.000472089 1.84358C-0.00529003 2.07291 0.0415869 2.30095 0.138385 2.51444C0.235183 2.72794 0.379971 2.92264 0.564338 3.08724L16.2537 17.4845L0.564335 31.8784Z" fill="#DFDFDF"/>
</svg>
