<svg width="62" height="62" viewBox="0 0 62 62" fill="none" xmlns="http://www.w3.org/2000/svg">
<g id="heroicons:arrow-right-20-solid">
<path id="Vector" fill-rule="evenodd" clip-rule="evenodd" d="M15.6549 46.3434C15.2189 45.9074 14.974 45.316 14.974 44.6994C14.974 44.0828 15.2189 43.4914 15.6549 43.0554L38.9738 19.7365L21.1789 20.1706C20.8681 20.1857 20.5574 20.1383 20.2653 20.0312C19.9731 19.9241 19.7055 19.7594 19.4781 19.5469C19.2508 19.3345 19.0684 19.0785 18.9418 18.7943C18.8152 18.51 18.747 18.2033 18.7411 17.8922C18.7353 17.5811 18.7919 17.272 18.9077 16.9831C19.0235 16.6943 19.196 16.4317 19.4152 16.2108C19.6343 15.9899 19.8956 15.8153 20.1835 15.6972C20.4714 15.5791 20.78 15.52 21.0912 15.5235L44.6555 14.9754C44.968 14.9697 45.2784 15.027 45.5682 15.1439C45.858 15.2609 46.1213 15.435 46.3423 15.656C46.5633 15.877 46.7375 16.1403 46.8544 16.4301C46.9713 16.7199 47.0286 17.0304 47.0229 17.3428L46.4749 40.9072C46.4783 41.2183 46.4192 41.527 46.3011 41.8149C46.1831 42.1027 46.0084 42.364 45.7875 42.5832C45.5666 42.8023 45.304 42.9749 45.0152 43.0907C44.7264 43.2065 44.4173 43.2631 44.1062 43.2572C43.7951 43.2514 43.4883 43.1831 43.2041 43.0565C42.9198 42.9299 42.6639 42.7475 42.4514 42.5202C42.239 42.2929 42.0743 42.0252 41.9672 41.7331C41.86 41.4409 41.8126 41.1303 41.8278 40.8195L42.2618 23.0246L18.943 46.3434C18.507 46.7794 17.9156 47.0244 17.299 47.0244C16.6823 47.0244 16.091 46.7794 15.6549 46.3434Z" fill="black"/>
</g>
</svg>
