<svg width="41" height="42" viewBox="0 0 41 42" fill="none" xmlns="http://www.w3.org/2000/svg">
<g id="fluent:ios-arrow-24-filled">
<path id="Vector" d="M14.5643 34.8784C14.3841 35.0437 14.2431 35.2381 14.1496 35.4506C14.0561 35.6631 14.0117 35.8895 14.0191 36.1169C14.0266 36.3442 14.0856 36.5681 14.1929 36.7756C14.3001 36.9832 14.4535 37.1705 14.6443 37.3267C14.835 37.4829 15.0594 37.605 15.3047 37.6861C15.5499 37.7671 15.8111 37.8055 16.0735 37.7991C16.3359 37.7927 16.5942 37.7415 16.8337 37.6486C17.0733 37.5556 17.2894 37.4227 17.4696 37.2574L34.4538 21.6741C34.8046 21.3526 35 20.9269 35 20.4845C35 20.0421 34.8046 19.6165 34.4538 19.295L17.4696 3.70991C17.2906 3.54099 17.0745 3.40458 16.8341 3.30862C16.5937 3.21264 16.3336 3.15903 16.0691 3.15089C15.8045 3.14274 15.5408 3.18023 15.2931 3.26117C15.0454 3.34211 14.8187 3.46489 14.6263 3.62237C14.4338 3.77986 14.2794 3.96892 14.172 4.17856C14.0645 4.3882 14.0062 4.61425 14.0005 4.84358C13.9947 5.07291 14.0416 5.30095 14.1384 5.51444C14.2352 5.72794 14.38 5.92264 14.5643 6.08724L30.2537 20.4845L14.5643 34.8784Z" fill="#DFDFDF"/>
</g>
</svg>
