<svg width="41" height="42" viewBox="0 0 41 42" fill="none" xmlns="http://www.w3.org/2000/svg">
<g id="fluent:ios-arrow-24-filled">
<path id="Vector" d="M26.4357 34.8784C26.6159 35.0437 26.7569 35.2381 26.8504 35.4506C26.9439 35.6631 26.9883 35.8895 26.9809 36.1169C26.9734 36.3442 26.9144 36.5681 26.8071 36.7756C26.6999 36.9832 26.5465 37.1705 26.3557 37.3267C26.165 37.4829 25.9406 37.605 25.6953 37.6861C25.4501 37.7671 25.1889 37.8055 24.9265 37.7991C24.6641 37.7927 24.4058 37.7415 24.1663 37.6486C23.9267 37.5556 23.7106 37.4227 23.5304 37.2574L6.54618 21.6741C6.19543 21.3526 6 20.9269 6 20.4845C6 20.0421 6.19543 19.6165 6.54618 19.295L23.5304 3.70991C23.7094 3.54099 23.9255 3.40458 24.1659 3.30862C24.4063 3.21264 24.6664 3.15903 24.9309 3.15089C25.1955 3.14274 25.4592 3.18023 25.7069 3.26117C25.9546 3.34211 26.1813 3.46489 26.3737 3.62237C26.5662 3.77986 26.7206 3.96892 26.828 4.17856C26.9355 4.3882 26.9938 4.61425 26.9995 4.84358C27.0053 5.07291 26.9584 5.30095 26.8616 5.51444C26.7648 5.72794 26.62 5.92264 26.4357 6.08724L10.7463 20.4845L26.4357 34.8784Z" fill="#DFDFDF"/>
</g>
</svg>
